{
  "accessors": [
    {
      "bufferView": 2,
      "componentType": 5126,
      "count": 713,
      "max": [
        3.3870790004730225,
        16.911029815673828,
        8.09495735168457
      ],
      "min": [
        -1.357424020767212,
        4.416193962097168,
        1.3663350343704224
      ],
      "type": "VEC3"
    },
    {
      "bufferView": 2,
      "byteOffset": 8556,
      "componentType": 5126,
      "count": 713,
      "max": [
        0.9888246655464172,
        0.998649001121521,
        0.9999998807907104
      ],
      "min": [
        -0.9885590076446533,
        -0.9937111139297485,
        -0.9578357338905334
      ],
      "type": "VEC3"
    },
    {
      "bufferView": 3,
      "componentType": 5126,
      "count": 713,
      "max": [
        0.9999737739562988,
        0.9979334473609924,
        0.994459867477417,
        1.0
      ],
      "min": [
        -0.9997589588165283,
        -0.9930742383003235,
        -0.9986394643783569,
        1.0
      ],
      "type": "VEC4"
    },
    {
      "bufferView": 1,
      "componentType": 5126,
      "count": 713,
      "max": [
        0.08767499774694443,
        0.9367409944534302
      ],
      "min": [
        0.040052998811006546,
        0.8625879883766174
      ],
      "type": "VEC2"
    },
    {
      "bufferView": 0,
      "componentType": 5125,
      "count": 2604,
      "type": "SCALAR"
    },
    {
      "bufferView": 2,
      "byteOffset": 17112,
      "componentType": 5126,
      "count": 209,
      "max": [
        10.553462982177734,
        28.729129791259766,
        20.200454711914063
      ],
      "min": [
        5.347192764282227,
        25.52647590637207,
        6.52924919128418
      ],
      "type": "VEC3"
    },
    {
      "bufferView": 2,
      "byteOffset": 19620,
      "componentType": 5126,
      "count": 209,
      "max": [
        0.9914368987083435,
        0.9990966320037842,
        0.9945892095565796
      ],
      "min": [
        -0.9650321006774902,
        -0.9848213791847229,
        -0.49402400851249695
      ],
      "type": "VEC3"
    },
    {
      "bufferView": 3,
      "byteOffset": 11408,
      "componentType": 5126,
      "count": 209,
      "max": [
        0.9870036840438843,
        0.9405350089073181,
        0.9980238080024719,
        1.0
      ],
      "min": [
        -0.9370384812355042,
        -0.8542461395263672,
        -0.42875275015830994,
        1.0
      ],
      "type": "VEC4"
    },
    {
      "bufferView": 1,
      "byteOffset": 5704,
      "componentType": 5126,
      "count": 209,
      "max": [
        0.4613580107688904,
        0.6921769976615906
      ],
      "min": [
        0.23064400255680084,
        0.6173989772796631
      ],
      "type": "VEC2"
    },
    {
      "bufferView": 0,
      "byteOffset": 10416,
      "componentType": 5125,
      "count": 648,
      "type": "SCALAR"
    },
    {
      "bufferView": 2,
      "byteOffset": 22128,
      "componentType": 5126,
      "count": 2780,
      "max": [
        15.645682334899902,
        32.1644172668457,
        19.41172981262207
      ],
      "min": [
        1.5565659999847412,
        18.672277450561523,
        -2.6467978954315186
      ],
      "type": "VEC3"
    },
    {
      "bufferView": 2,
      "byteOffset": 55488,
      "componentType": 5126,
      "count": 2780,
      "max": [
        0.9996278882026672,
        0.9989168643951416,
        0.9999852180480957
      ],
      "min": [
        -0.9976739883422852,
        -0.998537003993988,
        -0.9997144937515259
      ],
      "type": "VEC3"
    },
    {
      "bufferView": 3,
      "byteOffset": 14752,
      "componentType": 5126,
      "count": 2780,
      "max": [
        0.9997873902320862,
        0.9996325969696045,
        0.9978667497634888,
        1.0
      ],
      "min": [
        -0.9985934495925903,
        -0.9997021555900574,
        -0.999113917350769,
        -1.0
      ],
      "type": "VEC4"
    },
    {
      "bufferView": 1,
      "byteOffset": 7376,
      "componentType": 5126,
      "count": 2780,
      "max": [
        0.6943079829216003,
        0.675898015499115
      ],
      "min": [
        -7.999999797903001e-05,
        0.006893999874591827
      ],
      "type": "VEC2"
    },
    {
      "bufferView": 0,
      "byteOffset": 13008,
      "componentType": 5125,
      "count": 13854,
      "type": "SCALAR"
    },
    {
      "bufferView": 2,
      "byteOffset": 88848,
      "componentType": 5126,
      "count": 3293,
      "max": [
        13.192970275878906,
        18.2000732421875,
        9.911539077758789
      ],
      "min": [
        -5.3276519775390625,
        -4.52680778503418,
        -0.9773359894752502
      ],
      "type": "VEC3"
    },
    {
      "bufferView": 2,
      "byteOffset": 128364,
      "componentType": 5126,
      "count": 3293,
      "max": [
        0.9991399049758911,
        0.9998378753662109,
        1.0
      ],
      "min": [
        -0.9974539875984192,
        -0.9998138546943665,
        -1.0
      ],
      "type": "VEC3"
    },
    {
      "bufferView": 3,
      "byteOffset": 59232,
      "componentType": 5126,
      "count": 3293,
      "max": [
        0.9998629093170166,
        0.9993932247161865,
        1.0,
        1.0
      ],
      "min": [
        -0.9994778633117676,
        -0.9952559471130371,
        -0.9999347925186157,
        -1.0
      ],
      "type": "VEC4"
    },
    {
      "bufferView": 1,
      "byteOffset": 29616,
      "componentType": 5126,
      "count": 3293,
      "max": [
        0.9878680109977722,
        0.9945120215415955
      ],
      "min": [
        0.007296999916434288,
        0.007981999777257442
      ],
      "type": "VEC2"
    },
    {
      "bufferView": 0,
      "byteOffset": 68424,
      "componentType": 5125,
      "count": 15528,
      "type": "SCALAR"
    }
  ],
  "asset": {
    "extras": {
      "author": "Olha Vasylchenko (https://sketchfab.com/Aorie)",
      "license": "CC-BY-4.0 (http://creativecommons.org/licenses/by/4.0/)",
      "source": "https://sketchfab.com/3d-models/alien-plants-74f14d78c017455fb001e1592e372ba2",
      "title": "Alien Plants"
    },
    "generator": "Sketchfab-12.67.0",
    "version": "2.0"
  },
  "bufferViews": [
    {
      "buffer": 0,
      "byteLength": 130536,
      "name": "floatBufferViews",
      "target": 34963
    },
    {
      "buffer": 0,
      "byteLength": 55960,
      "byteOffset": 130536,
      "byteStride": 8,
      "name": "floatBufferViews",
      "target": 34962
    },
    {
      "buffer": 0,
      "byteLength": 167880,
      "byteOffset": 186496,
      "byteStride": 12,
      "name": "floatBufferViews",
      "target": 34962
    },
    {
      "buffer": 0,
      "byteLength": 111920,
      "byteOffset": 354376,
      "byteStride": 16,
      "name": "floatBufferViews",
      "target": 34962
    }
  ],
  "buffers": [
    {
      "byteLength": 466296,
      "uri": "scene.bin"
    }
  ],
  "images": [
    {
      "uri": "textures/M_Plant_02_TransparentSG_baseColor.png"
    },
    {
      "uri": "textures/M_Plant_02_TransparentSG_metallicRoughness.png"
    },
    {
      "uri": "textures/M_Plant_02_TransparentSG_normal.png"
    },
    {
      "uri": "textures/StingrayPBS1SG_baseColor.png"
    },
    {
      "uri": "textures/StingrayPBS1SG_metallicRoughness.png"
    },
    {
      "uri": "textures/StingrayPBS1SG_normal.png"
    },
    {
      "uri": "textures/StingrayPBS2SG_baseColor.png"
    },
    {
      "uri": "textures/StingrayPBS3SG_baseColor.png"
    },
    {
      "uri": "textures/StingrayPBS3SG_metallicRoughness.png"
    }
  ],
  "materials": [
    {
      "alphaMode": "BLEND",
      "doubleSided": true,
      "name": "M_Plant_02_TransparentSG",
      "normalTexture": {
        "index": 2
      },
      "occlusionTexture": {
        "index": 1
      },
      "pbrMetallicRoughness": {
        "baseColorTexture": {
          "index": 0
        },
        "metallicRoughnessTexture": {
          "index": 1
        },
        "roughnessFactor": 0.6
      }
    },
    {
      "alphaMode": "BLEND",
      "doubleSided": true,
      "name": "StingrayPBS1SG",
      "normalTexture": {
        "index": 5
      },
      "pbrMetallicRoughness": {
        "baseColorTexture": {
          "index": 3
        },
        "metallicRoughnessTexture": {
          "index": 4
        }
      }
    },
    {
      "doubleSided": true,
      "name": "StingrayPBS2SG",
      "normalTexture": {
        "index": 5
      },
      "pbrMetallicRoughness": {
        "baseColorTexture": {
          "index": 6
        },
        "metallicRoughnessTexture": {
          "index": 4
        }
      }
    },
    {
      "doubleSided": true,
      "name": "StingrayPBS3SG",
      "normalTexture": {
        "index": 2
      },
      "occlusionTexture": {
        "index": 8
      },
      "pbrMetallicRoughness": {
        "baseColorTexture": {
          "index": 7
        },
        "metallicRoughnessTexture": {
          "index": 8
        }
      }
    }
  ],
  "meshes": [
    {
      "name": "Object_0",
      "primitives": [
        {
          "attributes": {
            "NORMAL": 1,
            "POSITION": 0,
            "TANGENT": 2,
            "TEXCOORD_0": 3
          },
          "indices": 4,
          "material": 0,
          "mode": 4
        }
      ]
    },
    {
      "name": "Object_1",
      "primitives": [
        {
          "attributes": {
            "NORMAL": 6,
            "POSITION": 5,
            "TANGENT": 7,
            "TEXCOORD_0": 8
          },
          "indices": 9,
          "material": 1,
          "mode": 4
        }
      ]
    },
    {
      "name": "Object_2",
      "primitives": [
        {
          "attributes": {
            "NORMAL": 11,
            "POSITION": 10,
            "TANGENT": 12,
            "TEXCOORD_0": 13
          },
          "indices": 14,
          "material": 2,
          "mode": 4
        }
      ]
    },
    {
      "name": "Object_3",
      "primitives": [
        {
          "attributes": {
            "NORMAL": 16,
            "POSITION": 15,
            "TANGENT": 17,
            "TEXCOORD_0": 18
          },
          "indices": 19,
          "material": 3,
          "mode": 4
        }
      ]
    }
  ],
  "nodes": [
    {
      "children": [
        1
      ],
      "matrix": [
        1.0,
        0.0,
        0.0,
        0.0,
        0.0,
        2.220446049250313e-16,
        -1.0,
        0.0,
        0.0,
        1.0,
        2.220446049250313e-16,
        0.0,
        0.0,
        0.0,
        0.0,
        1.0
      ],
      "name": "Sketchfab_model"
    },
    {
      "children": [
        2,
        3,
        4,
        5
      ],
      "name": "AlienPlants.obj.cleaner.materialmerger.gles"
    },
    {
      "mesh": 0,
      "name": "Object_2"
    },
    {
      "mesh": 1,
      "name": "Object_3"
    },
    {
      "mesh": 2,
      "name": "Object_4"
    },
    {
      "mesh": 3,
      "name": "Object_5"
    }
  ],
  "samplers": [
    {
      "magFilter": 9729,
      "minFilter": 9987,
      "wrapS": 10497,
      "wrapT": 10497
    }
  ],
  "scene": 0,
  "scenes": [
    {
      "name": "Sketchfab_Scene",
      "nodes": [
        0
      ]
    }
  ],
  "textures": [
    {
      "sampler": 0,
      "source": 0
    },
    {
      "sampler": 0,
      "source": 1
    },
    {
      "sampler": 0,
      "source": 2
    },
    {
      "sampler": 0,
      "source": 3
    },
    {
      "sampler": 0,
      "source": 4
    },
    {
      "sampler": 0,
      "source": 5
    },
    {
      "sampler": 0,
      "source": 6
    },
    {
      "sampler": 0,
      "source": 7
    },
    {
      "sampler": 0,
      "source": 8
    }
  ]
}
